<svg xmlns="http://www.w3.org/2000/svg" viewBox="0 0 100 100" fill="none">
  <defs>
    <linearGradient id="heygenGrad" x1="10" y1="10" x2="90" y2="90" gradientUnits="userSpaceOnUse">
      <stop stop-color="#6366F1"/>
      <stop offset="0.5" stop-color="#8B5CF6"/>
      <stop offset="1" stop-color="#EC4899"/>
    </linearGradient>
  </defs>
  <rect width="100" height="100" rx="24" fill="url(#heygenGrad)"/>
  <!-- Modern HeyGen icon symbol -->
  <path d="M30 26C30 23.7909 31.7909 22 34 22H40C42.2091 22 44 23.7909 44 26V74C44 76.2091 42.2091 78 40 78H34C31.7909 78 30 76.2091 30 74V26Z" fill="#FFFFFF"/>
  <path d="M56 26C56 23.7909 57.7909 22 60 22H66C68.2091 22 70 23.7909 70 26V74C70 76.2091 68.2091 78 66 78H60C57.7909 78 56 76.2091 56 74V26Z" fill="#FFFFFF"/>
  <rect x="42" y="44" width="16" height="12" rx="3" fill="#FFFFFF"/>
  <circle cx="37" cy="35" r="3.5" fill="#6366F1"/>
  <circle cx="63" cy="35" r="3.5" fill="#6366F1"/>
</svg>
